<svg xmlns="http://www.w3.org/2000/svg" xmlns:xlink="http://www.w3.org/1999/xlink" fill="none" version="1.1" width="90" height="90" viewBox="0 0 90 90"><g><path d="M32.7485,90C27.7174,88.555,22.9731,86.2263,18.7295,83.1193L18.92,73.8476C19.0016,69.8289,16.2545,66.323,12.3867,65.5099L3.45098,63.6297C1.42467,58.7253,0.256745,53.498,0,48.184L7.23785,42.556C10.3774,40.1154,11.3584,35.7422,9.57059,32.1567L5.44375,23.8815C7.95395,19.2142,11.2399,15.0251,15.1557,11.4999L23.993,13.7511C27.8248,14.7268,31.795,12.7809,33.4346,9.12361L37.2194,0.681617C39.7895,0.22699,42.3934,-0.0010605,45.0021,0.00000371571C47.6543,0.00000371571,50.2533,0.233461,52.7826,0.681617L56.5675,9.12361C58.207,12.7809,62.1773,14.7268,66.009,13.7511L74.8444,11.4999C78.7601,15.0251,82.0461,19.2142,84.5563,23.8815L80.4315,32.1567C78.6432,35.7417,79.6233,40.1149,82.7622,42.556L90,48.184C89.7433,53.498,88.5753,58.7253,86.549,63.6297L77.6154,65.5078C73.7476,66.3209,71.0004,69.8268,71.0821,73.8456L71.2705,83.1193C67.0268,86.2256,62.2825,88.5535,57.2515,89.9979L50.2389,84.0614C47.2029,81.4911,42.7971,81.4911,39.7611,84.0614L32.7485,90ZM45,64.6177C55.18,64.6177,63.4326,56.2186,63.4326,45.8577C63.4326,35.4969,55.18,27.0978,45,27.0978C34.82,27.0978,26.5674,35.4969,26.5674,45.8577C26.5674,56.2186,34.82,64.6177,45,64.6177Z" fill="#424449" fill-opacity="1"/></g></svg>